<?xml version="1.0" encoding="UTF-8"?>
<svg xmlns="http://www.w3.org/2000/svg" width="32" height="32" viewBox="0 0 32 32" preserveAspectRatio="xMidYMid meet" shape-rendering="crispEdges">
  <g stroke="none">
    <polygon points="13,0 14,0 14,1 13,1" fill="#000000"/>
    <polygon points="14,0 15,0 15,1 14,1" fill="#000000"/>
    <polygon points="15,0 16,0 16,1 15,1" fill="#000000"/>
    <polygon points="16,0 17,0 17,1 16,1" fill="#000000"/>
    <polygon points="17,0 18,0 18,1 17,1" fill="#000000"/>
    <polygon points="18,0 19,0 19,1 18,1" fill="#000000"/>
    <polygon points="12,1 13,1 13,2 12,2" fill="#000000"/>
    <polygon points="13,1 14,1 14,2 13,2" fill="#969696"/>
    <polygon points="14,1 15,1 15,2 14,2" fill="#E7E7E7"/>
    <polygon points="15,1 16,1 16,2 15,2" fill="#E7E7E7"/>
    <polygon points="16,1 17,1 17,2 16,2" fill="#C0C0C0"/>
    <polygon points="17,1 18,1 18,2 17,2" fill="#A5A5A5"/>
    <polygon points="18,1 19,1 19,2 18,2" fill="#666666"/>
    <polygon points="19,1 20,1 20,2 19,2" fill="#000000"/>
    <polygon points="6,2 7,2 7,3 6,3" fill="#000000"/>
    <polygon points="7,2 8,2 8,3 7,3" fill="#000000"/>
    <polygon points="8,2 9,2 9,3 8,3" fill="#000000"/>
    <polygon points="9,2 10,2 10,3 9,3" fill="#000000"/>
    <polygon points="10,2 11,2 11,3 10,3" fill="#000000"/>
    <polygon points="11,2 12,2 12,3 11,3" fill="#000000"/>
    <polygon points="12,2 13,2 13,3 12,3" fill="#000000"/>
    <polygon points="13,2 14,2 14,3 13,3" fill="#000000"/>
    <polygon points="14,2 15,2 15,3 14,3" fill="#000000"/>
    <polygon points="15,2 16,2 16,3 15,3" fill="#000000"/>
    <polygon points="16,2 17,2 17,3 16,3" fill="#000000"/>
    <polygon points="17,2 18,2 18,3 17,3" fill="#000000"/>
    <polygon points="18,2 19,2 19,3 18,3" fill="#000000"/>
    <polygon points="19,2 20,2 20,3 19,3" fill="#000000"/>
    <polygon points="20,2 21,2 21,3 20,3" fill="#000000"/>
    <polygon points="21,2 22,2 22,3 21,3" fill="#000000"/>
    <polygon points="22,2 23,2 23,3 22,3" fill="#000000"/>
    <polygon points="23,2 24,2 24,3 23,3" fill="#000000"/>
    <polygon points="24,2 25,2 25,3 24,3" fill="#000000"/>
    <polygon points="25,2 26,2 26,3 25,3" fill="#000000"/>
    <polygon points="5,3 6,3 6,4 5,4" fill="#000000"/>
    <polygon points="6,3 7,3 7,4 6,4" fill="#666666"/>
    <polygon points="7,3 8,3 8,4 7,4" fill="#969696"/>
    <polygon points="8,3 9,3 9,4 8,4" fill="#969696"/>
    <polygon points="9,3 10,3 10,4 9,4" fill="#C0C0C0"/>
    <polygon points="10,3 11,3 11,4 10,4" fill="#C0C0C0"/>
    <polygon points="11,3 12,3 12,4 11,4" fill="#E7E7E7"/>
    <polygon points="12,3 13,3 13,4 12,4" fill="#FFFFFF"/>
    <polygon points="13,3 14,3 14,4 13,4" fill="#E7E7E7"/>
    <polygon points="14,3 15,3 15,4 14,4" fill="#E7E7E7"/>
    <polygon points="15,3 16,3 16,4 15,4" fill="#C0C0C0"/>
    <polygon points="16,3 17,3 17,4 16,4" fill="#C0C0C0"/>
    <polygon points="17,3 18,3 18,4 17,4" fill="#A5A5A5"/>
    <polygon points="18,3 19,3 19,4 18,4" fill="#A5A5A5"/>
    <polygon points="19,3 20,3 20,4 19,4" fill="#969696"/>
    <polygon points="20,3 21,3 21,4 20,4" fill="#969696"/>
    <polygon points="21,3 22,3 22,4 21,4" fill="#969696"/>
    <polygon points="22,3 23,3 23,4 22,4" fill="#777777"/>
    <polygon points="23,3 24,3 24,4 23,4" fill="#777777"/>
    <polygon points="24,3 25,3 25,4 24,4" fill="#666666"/>
    <polygon points="25,3 26,3 26,4 25,4" fill="#666666"/>
    <polygon points="26,3 27,3 27,4 26,4" fill="#000000"/>
    <polygon points="5,4 6,4 6,5 5,5" fill="#000000"/>
    <polygon points="6,4 7,4 7,5 6,5" fill="#000000"/>
    <polygon points="7,4 8,4 8,5 7,5" fill="#000000"/>
    <polygon points="8,4 9,4 9,5 8,5" fill="#000000"/>
    <polygon points="9,4 10,4 10,5 9,5" fill="#000000"/>
    <polygon points="10,4 11,4 11,5 10,5" fill="#000000"/>
    <polygon points="11,4 12,4 12,5 11,5" fill="#000000"/>
    <polygon points="12,4 13,4 13,5 12,5" fill="#000000"/>
    <polygon points="13,4 14,4 14,5 13,5" fill="#000000"/>
    <polygon points="14,4 15,4 15,5 14,5" fill="#000000"/>
    <polygon points="15,4 16,4 16,5 15,5" fill="#000000"/>
    <polygon points="16,4 17,4 17,5 16,5" fill="#000000"/>
    <polygon points="17,4 18,4 18,5 17,5" fill="#000000"/>
    <polygon points="18,4 19,4 19,5 18,5" fill="#000000"/>
    <polygon points="19,4 20,4 20,5 19,5" fill="#000000"/>
    <polygon points="20,4 21,4 21,5 20,5" fill="#000000"/>
    <polygon points="21,4 22,4 22,5 21,5" fill="#000000"/>
    <polygon points="22,4 23,4 23,5 22,5" fill="#000000"/>
    <polygon points="23,4 24,4 24,5 23,5" fill="#000000"/>
    <polygon points="24,4 25,4 25,5 24,5" fill="#000000"/>
    <polygon points="25,4 26,4 26,5 25,5" fill="#000000"/>
    <polygon points="26,4 27,4 27,5 26,5" fill="#000000"/>
    <polygon points="6,5 7,5 7,6 6,6" fill="#000000"/>
    <polygon points="7,5 8,5 8,6 7,6" fill="#969696"/>
    <polygon points="8,5 9,5 9,6 8,6" fill="#C0C0C0"/>
    <polygon points="9,5 10,5 10,6 9,6" fill="#E7E7E7"/>
    <polygon points="10,5 11,5 11,6 10,6" fill="#E7E7E7"/>
    <polygon points="11,5 12,5 12,6 11,6" fill="#E7E7E7"/>
    <polygon points="12,5 13,5 13,6 12,6" fill="#E7E7E7"/>
    <polygon points="13,5 14,5 14,6 13,6" fill="#CDCDCD"/>
    <polygon points="14,5 15,5 15,6 14,6" fill="#CDCDCD"/>
    <polygon points="15,5 16,5 16,6 15,6" fill="#CDCDCD"/>
    <polygon points="16,5 17,5 17,6 16,6" fill="#C0C0C0"/>
    <polygon points="17,5 18,5 18,6 17,6" fill="#C0C0C0"/>
    <polygon points="18,5 19,5 19,6 18,6" fill="#C0C0C0"/>
    <polygon points="19,5 20,5 20,6 19,6" fill="#C0C0C0"/>
    <polygon points="20,5 21,5 21,6 20,6" fill="#969696"/>
    <polygon points="21,5 22,5 22,6 21,6" fill="#969696"/>
    <polygon points="22,5 23,5 23,6 22,6" fill="#777777"/>
    <polygon points="23,5 24,5 24,6 23,6" fill="#666666"/>
    <polygon points="24,5 25,5 25,6 24,6" fill="#666666"/>
    <polygon points="25,5 26,5 26,6 25,6" fill="#000000"/>
    <polygon points="6,6 7,6 7,7 6,7" fill="#000000"/>
    <polygon points="7,6 8,6 8,7 7,7" fill="#969696"/>
    <polygon points="8,6 9,6 9,7 8,7" fill="#C0C0C0"/>
    <polygon points="9,6 10,6 10,7 9,7" fill="#F3F3F3"/>
    <polygon points="10,6 11,6 11,7 10,7" fill="#F3F3F3"/>
    <polygon points="11,6 12,6 12,7 11,7" fill="#F3F3F3"/>
    <polygon points="12,6 13,6 13,7 12,7" fill="#F3F3F3"/>
    <polygon points="13,6 14,6 14,7 13,7" fill="#E7E7E7"/>
    <polygon points="14,6 15,6 15,7 14,7" fill="#E7E7E7"/>
    <polygon points="15,6 16,6 16,7 15,7" fill="#E7E7E7"/>
    <polygon points="16,6 17,6 17,7 16,7" fill="#E7E7E7"/>
    <polygon points="17,6 18,6 18,7 17,7" fill="#C0C0C0"/>
    <polygon points="18,6 19,6 19,7 18,7" fill="#C0C0C0"/>
    <polygon points="19,6 20,6 20,7 19,7" fill="#C0C0C0"/>
    <polygon points="20,6 21,6 21,7 20,7" fill="#C0C0C0"/>
    <polygon points="21,6 22,6 22,7 21,7" fill="#969696"/>
    <polygon points="22,6 23,6 23,7 22,7" fill="#777777"/>
    <polygon points="23,6 24,6 24,7 23,7" fill="#777777"/>
    <polygon points="24,6 25,6 25,7 24,7" fill="#666666"/>
    <polygon points="25,6 26,6 26,7 25,7" fill="#000000"/>
    <polygon points="6,7 7,7 7,8 6,8" fill="#000000"/>
    <polygon points="7,7 8,7 8,8 7,8" fill="#969696"/>
    <polygon points="8,7 9,7 9,8 8,8" fill="#C0C0C0"/>
    <polygon points="9,7 10,7 10,8 9,8" fill="#E7E7E7"/>
    <polygon points="10,7 11,7 11,8 10,8" fill="#E7E7E7"/>
    <polygon points="11,7 12,7 12,8 11,8" fill="#F3F3F3"/>
    <polygon points="12,7 13,7 13,8 12,8" fill="#F3F3F3"/>
    <polygon points="13,7 14,7 14,8 13,8" fill="#E7E7E7"/>
    <polygon points="14,7 15,7 15,8 14,8" fill="#969696"/>
    <polygon points="15,7 16,7 16,8 15,8" fill="#E7E7E7"/>
    <polygon points="16,7 17,7 17,8 16,8" fill="#E7E7E7"/>
    <polygon points="17,7 18,7 18,8 17,8" fill="#E7E7E7"/>
    <polygon points="18,7 19,7 19,8 18,8" fill="#777777"/>
    <polygon points="19,7 20,7 20,8 19,8" fill="#C0C0C0"/>
    <polygon points="20,7 21,7 21,8 20,8" fill="#C0C0C0"/>
    <polygon points="21,7 22,7 22,8 21,8" fill="#969696"/>
    <polygon points="22,7 23,7 23,8 22,8" fill="#777777"/>
    <polygon points="23,7 24,7 24,8 23,8" fill="#777777"/>
    <polygon points="24,7 25,7 25,8 24,8" fill="#969696"/>
    <polygon points="25,7 26,7 26,8 25,8" fill="#000000"/>
    <polygon points="5,8 6,8 6,9 5,9" fill="#000000"/>
    <polygon points="6,8 7,8 7,9 6,9" fill="#969696"/>
    <polygon points="7,8 8,8 8,9 7,9" fill="#C0C0C0"/>
    <polygon points="8,8 9,8 9,9 8,9" fill="#E7E7E7"/>
    <polygon points="9,8 10,8 10,9 9,9" fill="#C0C0C0"/>
    <polygon points="10,8 11,8 11,9 10,9" fill="#E7E7E7"/>
    <polygon points="11,8 12,8 12,9 11,9" fill="#F3F3F3"/>
    <polygon points="12,8 13,8 13,9 12,9" fill="#F3F3F3"/>
    <polygon points="13,8 14,8 14,9 13,9" fill="#969696"/>
    <polygon points="14,8 15,8 15,9 14,9" fill="#CDCDCD"/>
    <polygon points="15,8 16,8 16,9 15,9" fill="#CDCDCD"/>
    <polygon points="16,8 17,8 17,9 16,9" fill="#E7E7E7"/>
    <polygon points="17,8 18,8 18,9 17,9" fill="#777777"/>
    <polygon points="18,8 19,8 19,9 18,9" fill="#969696"/>
    <polygon points="19,8 20,8 20,9 19,9" fill="#969696"/>
    <polygon points="20,8 21,8 21,9 20,9" fill="#C0C0C0"/>
    <polygon points="21,8 22,8 22,9 21,9" fill="#969696"/>
    <polygon points="22,8 23,8 23,9 22,9" fill="#3F3F3F"/>
    <polygon points="23,8 24,8 24,9 23,9" fill="#969696"/>
    <polygon points="24,8 25,8 25,9 24,9" fill="#777777"/>
    <polygon points="25,8 26,8 26,9 25,9" fill="#969696"/>
    <polygon points="26,8 27,8 27,9 26,9" fill="#000000"/>
    <polygon points="5,9 6,9 6,10 5,10" fill="#000000"/>
    <polygon points="6,9 7,9 7,10 6,10" fill="#969696"/>
    <polygon points="7,9 8,9 8,10 7,10" fill="#E7E7E7"/>
    <polygon points="8,9 9,9 9,10 8,10" fill="#E7E7E7"/>
    <polygon points="9,9 10,9 10,10 9,10" fill="#C0C0C0"/>
    <polygon points="10,9 11,9 11,10 10,10" fill="#E7E7E7"/>
    <polygon points="11,9 12,9 12,10 11,10" fill="#FFFFFF"/>
    <polygon points="12,9 13,9 13,10 12,10" fill="#FFFFFF"/>
    <polygon points="13,9 14,9 14,10 13,10" fill="#969696"/>
    <polygon points="14,9 15,9 15,10 14,10" fill="#C0C0C0"/>
    <polygon points="15,9 16,9 16,10 15,10" fill="#DADADA"/>
    <polygon points="16,9 17,9 17,10 16,10" fill="#E7E7E7"/>
    <polygon points="17,9 18,9 18,10 17,10" fill="#777777"/>
    <polygon points="18,9 19,9 19,10 18,10" fill="#969696"/>
    <polygon points="19,9 20,9 20,10 19,10" fill="#969696"/>
    <polygon points="20,9 21,9 21,10 20,10" fill="#C0C0C0"/>
    <polygon points="21,9 22,9 22,10 21,10" fill="#969696"/>
    <polygon points="22,9 23,9 23,10 22,10" fill="#3F3F3F"/>
    <polygon points="23,9 24,9 24,10 23,10" fill="#777777"/>
    <polygon points="24,9 25,9 25,10 24,10" fill="#666666"/>
    <polygon points="25,9 26,9 26,10 25,10" fill="#969696"/>
    <polygon points="26,9 27,9 27,10 26,10" fill="#000000"/>
    <polygon points="4,10 5,10 5,11 4,11" fill="#000000"/>
    <polygon points="5,10 6,10 6,11 5,11" fill="#969696"/>
    <polygon points="6,10 7,10 7,11 6,11" fill="#C0C0C0"/>
    <polygon points="7,10 8,10 8,11 7,11" fill="#E7E7E7"/>
    <polygon points="8,10 9,10 9,11 8,11" fill="#C0C0C0"/>
    <polygon points="9,10 10,10 10,11 9,11" fill="#E7E7E7"/>
    <polygon points="10,10 11,10 11,11 10,11" fill="#E7E7E7"/>
    <polygon points="11,10 12,10 12,11 11,11" fill="#FFFFFF"/>
    <polygon points="12,10 13,10 13,11 12,11" fill="#969696"/>
    <polygon points="13,10 14,10 14,11 13,11" fill="#CDCDCD"/>
    <polygon points="14,10 15,10 15,11 14,11" fill="#DADADA"/>
    <polygon points="15,10 16,10 16,11 15,11" fill="#DADADA"/>
    <polygon points="16,10 17,10 17,11 16,11" fill="#E7E7E7"/>
    <polygon points="17,10 18,10 18,11 17,11" fill="#E7E7E7"/>
    <polygon points="18,10 19,10 19,11 18,11" fill="#777777"/>
    <polygon points="19,10 20,10 20,11 19,11" fill="#969696"/>
    <polygon points="20,10 21,10 21,11 20,11" fill="#969696"/>
    <polygon points="21,10 22,10 22,11 21,11" fill="#C0C0C0"/>
    <polygon points="22,10 23,10 23,11 22,11" fill="#969696"/>
    <polygon points="23,10 24,10 24,11 23,11" fill="#3F3F3F"/>
    <polygon points="24,10 25,10 25,11 24,11" fill="#777777"/>
    <polygon points="25,10 26,10 26,11 25,11" fill="#666666"/>
    <polygon points="26,10 27,10 27,11 26,11" fill="#969696"/>
    <polygon points="27,10 28,10 28,11 27,11" fill="#000000"/>
    <polygon points="4,11 5,11 5,12 4,12" fill="#000000"/>
    <polygon points="5,11 6,11 6,12 5,12" fill="#969696"/>
    <polygon points="6,11 7,11 7,12 6,12" fill="#E7E7E7"/>
    <polygon points="7,11 8,11 8,12 7,12" fill="#E7E7E7"/>
    <polygon points="8,11 9,11 9,12 8,12" fill="#C0C0C0"/>
    <polygon points="9,11 10,11 10,12 9,12" fill="#E7E7E7"/>
    <polygon points="10,11 11,11 11,12 10,12" fill="#FFFFFF"/>
    <polygon points="11,11 12,11 12,12 11,12" fill="#FFFFFF"/>
    <polygon points="12,11 13,11 13,12 12,12" fill="#969696"/>
    <polygon points="13,11 14,11 14,12 13,12" fill="#CDCDCD"/>
    <polygon points="14,11 15,11 15,12 14,12" fill="#E7E7E7"/>
    <polygon points="15,11 16,11 16,12 15,12" fill="#FFFFFF"/>
    <polygon points="16,11 17,11 17,12 16,12" fill="#F3F3F3"/>
    <polygon points="17,11 18,11 18,12 17,12" fill="#E7E7E7"/>
    <polygon points="18,11 19,11 19,12 18,12" fill="#777777"/>
    <polygon points="19,11 20,11 20,12 19,12" fill="#969696"/>
    <polygon points="20,11 21,11 21,12 20,12" fill="#969696"/>
    <polygon points="21,11 22,11 22,12 21,12" fill="#C0C0C0"/>
    <polygon points="22,11 23,11 23,12 22,12" fill="#969696"/>
    <polygon points="23,11 24,11 24,12 23,12" fill="#3F3F3F"/>
    <polygon points="24,11 25,11 25,12 24,12" fill="#777777"/>
    <polygon points="25,11 26,11 26,12 25,12" fill="#666666"/>
    <polygon points="26,11 27,11 27,12 26,12" fill="#969696"/>
    <polygon points="27,11 28,11 28,12 27,12" fill="#000000"/>
    <polygon points="3,12 4,12 4,13 3,13" fill="#000000"/>
    <polygon points="4,12 5,12 5,13 4,13" fill="#969696"/>
    <polygon points="5,12 6,12 6,13 5,13" fill="#C0C0C0"/>
    <polygon points="6,12 7,12 7,13 6,13" fill="#E7E7E7"/>
    <polygon points="7,12 8,12 8,13 7,13" fill="#C0C0C0"/>
    <polygon points="8,12 9,12 9,13 8,13" fill="#E7E7E7"/>
    <polygon points="9,12 10,12 10,13 9,13" fill="#FFFFFF"/>
    <polygon points="10,12 11,12 11,13 10,13" fill="#FFFFFF"/>
    <polygon points="11,12 12,12 12,13 11,13" fill="#A5A5A5"/>
    <polygon points="12,12 13,12 13,13 12,13" fill="#CDCDCD"/>
    <polygon points="13,12 14,12 14,13 13,13" fill="#E7E7E7"/>
    <polygon points="14,12 15,12 15,13 14,13" fill="#FFFFFF"/>
    <polygon points="15,12 16,12 16,13 15,13" fill="#FFFFFF"/>
    <polygon points="16,12 17,12 17,13 16,13" fill="#F3F3F3"/>
    <polygon points="17,12 18,12 18,13 17,13" fill="#F3F3F3"/>
    <polygon points="18,12 19,12 19,13 18,13" fill="#E7E7E7"/>
    <polygon points="19,12 20,12 20,13 19,13" fill="#777777"/>
    <polygon points="20,12 21,12 21,13 20,13" fill="#969696"/>
    <polygon points="21,12 22,12 22,13 21,13" fill="#969696"/>
    <polygon points="22,12 23,12 23,13 22,13" fill="#C0C0C0"/>
    <polygon points="23,12 24,12 24,13 23,13" fill="#969696"/>
    <polygon points="24,12 25,12 25,13 24,13" fill="#3F3F3F"/>
    <polygon points="25,12 26,12 26,13 25,13" fill="#777777"/>
    <polygon points="26,12 27,12 27,13 26,13" fill="#666666"/>
    <polygon points="27,12 28,12 28,13 27,13" fill="#969696"/>
    <polygon points="28,12 29,12 29,13 28,13" fill="#000000"/>
    <polygon points="3,13 4,13 4,14 3,14" fill="#000000"/>
    <polygon points="4,13 5,13 5,14 4,14" fill="#969696"/>
    <polygon points="5,13 6,13 6,14 5,14" fill="#C0C0C0"/>
    <polygon points="6,13 7,13 7,14 6,14" fill="#E7E7E7"/>
    <polygon points="7,13 8,13 8,14 7,14" fill="#C0C0C0"/>
    <polygon points="8,13 9,13 9,14 8,14" fill="#E7E7E7"/>
    <polygon points="9,13 10,13 10,14 9,14" fill="#FFFFFF"/>
    <polygon points="10,13 11,13 11,14 10,14" fill="#FFFFFF"/>
    <polygon points="11,13 12,13 12,14 11,14" fill="#A5A5A5"/>
    <polygon points="12,13 13,13 13,14 12,14" fill="#CDCDCD"/>
    <polygon points="13,13 14,13 14,14 13,14" fill="#E7E7E7"/>
    <polygon points="14,13 15,13 15,14 14,14" fill="#FFFFFF"/>
    <polygon points="15,13 16,13 16,14 15,14" fill="#FFFFFF"/>
    <polygon points="16,13 17,13 17,14 16,14" fill="#FFFFFF"/>
    <polygon points="17,13 18,13 18,14 17,14" fill="#F3F3F3"/>
    <polygon points="18,13 19,13 19,14 18,14" fill="#E7E7E7"/>
    <polygon points="19,13 20,13 20,14 19,14" fill="#777777"/>
    <polygon points="20,13 21,13 21,14 20,14" fill="#969696"/>
    <polygon points="21,13 22,13 22,14 21,14" fill="#969696"/>
    <polygon points="22,13 23,13 23,14 22,14" fill="#C0C0C0"/>
    <polygon points="23,13 24,13 24,14 23,14" fill="#969696"/>
    <polygon points="24,13 25,13 25,14 24,14" fill="#3F3F3F"/>
    <polygon points="25,13 26,13 26,14 25,14" fill="#777777"/>
    <polygon points="26,13 27,13 27,14 26,14" fill="#666666"/>
    <polygon points="27,13 28,13 28,14 27,14" fill="#969696"/>
    <polygon points="28,13 29,13 29,14 28,14" fill="#000000"/>
    <polygon points="3,14 4,14 4,15 3,15" fill="#000000"/>
    <polygon points="4,14 5,14 5,15 4,15" fill="#969696"/>
    <polygon points="5,14 6,14 6,15 5,15" fill="#C0C0C0"/>
    <polygon points="6,14 7,14 7,15 6,15" fill="#E7E7E7"/>
    <polygon points="7,14 8,14 8,15 7,15" fill="#C0C0C0"/>
    <polygon points="8,14 9,14 9,15 8,15" fill="#E7E7E7"/>
    <polygon points="9,14 10,14 10,15 9,15" fill="#FFFFFF"/>
    <polygon points="10,14 11,14 11,15 10,15" fill="#FFFFFF"/>
    <polygon points="11,14 12,14 12,15 11,15" fill="#A5A5A5"/>
    <polygon points="12,14 13,14 13,15 12,15" fill="#CDCDCD"/>
    <polygon points="13,14 14,14 14,15 13,15" fill="#E7E7E7"/>
    <polygon points="14,14 15,14 15,15 14,15" fill="#FFFFFF"/>
    <polygon points="15,14 16,14 16,15 15,15" fill="#FFFFFF"/>
    <polygon points="16,14 17,14 17,15 16,15" fill="#FFFFFF"/>
    <polygon points="17,14 18,14 18,15 17,15" fill="#F3F3F3"/>
    <polygon points="18,14 19,14 19,15 18,15" fill="#E7E7E7"/>
    <polygon points="19,14 20,14 20,15 19,15" fill="#777777"/>
    <polygon points="20,14 21,14 21,15 20,15" fill="#969696"/>
    <polygon points="21,14 22,14 22,15 21,15" fill="#969696"/>
    <polygon points="22,14 23,14 23,15 22,15" fill="#C0C0C0"/>
    <polygon points="23,14 24,14 24,15 23,15" fill="#969696"/>
    <polygon points="24,14 25,14 25,15 24,15" fill="#3F3F3F"/>
    <polygon points="25,14 26,14 26,15 25,15" fill="#777777"/>
    <polygon points="26,14 27,14 27,15 26,15" fill="#666666"/>
    <polygon points="27,14 28,14 28,15 27,15" fill="#969696"/>
    <polygon points="28,14 29,14 29,15 28,15" fill="#000000"/>
    <polygon points="3,15 4,15 4,16 3,16" fill="#000000"/>
    <polygon points="4,15 5,15 5,16 4,16" fill="#969696"/>
    <polygon points="5,15 6,15 6,16 5,16" fill="#C0C0C0"/>
    <polygon points="6,15 7,15 7,16 6,16" fill="#E7E7E7"/>
    <polygon points="7,15 8,15 8,16 7,16" fill="#C0C0C0"/>
    <polygon points="8,15 9,15 9,16 8,16" fill="#E7E7E7"/>
    <polygon points="9,15 10,15 10,16 9,16" fill="#FFFFFF"/>
    <polygon points="10,15 11,15 11,16 10,16" fill="#FFFFFF"/>
    <polygon points="11,15 12,15 12,16 11,16" fill="#A5A5A5"/>
    <polygon points="12,15 13,15 13,16 12,16" fill="#CDCDCD"/>
    <polygon points="13,15 14,15 14,16 13,16" fill="#E7E7E7"/>
    <polygon points="14,15 15,15 15,16 14,16" fill="#FFFFFF"/>
    <polygon points="15,15 16,15 16,16 15,16" fill="#FFFFFF"/>
    <polygon points="16,15 17,15 17,16 16,16" fill="#FFFFFF"/>
    <polygon points="17,15 18,15 18,16 17,16" fill="#F3F3F3"/>
    <polygon points="18,15 19,15 19,16 18,16" fill="#E7E7E7"/>
    <polygon points="19,15 20,15 20,16 19,16" fill="#777777"/>
    <polygon points="20,15 21,15 21,16 20,16" fill="#969696"/>
    <polygon points="21,15 22,15 22,16 21,16" fill="#969696"/>
    <polygon points="22,15 23,15 23,16 22,16" fill="#C0C0C0"/>
    <polygon points="23,15 24,15 24,16 23,16" fill="#969696"/>
    <polygon points="24,15 25,15 25,16 24,16" fill="#3F3F3F"/>
    <polygon points="25,15 26,15 26,16 25,16" fill="#777777"/>
    <polygon points="26,15 27,15 27,16 26,16" fill="#666666"/>
    <polygon points="27,15 28,15 28,16 27,16" fill="#969696"/>
    <polygon points="28,15 29,15 29,16 28,16" fill="#000000"/>
    <polygon points="3,16 4,16 4,17 3,17" fill="#000000"/>
    <polygon points="4,16 5,16 5,17 4,17" fill="#969696"/>
    <polygon points="5,16 6,16 6,17 5,17" fill="#C0C0C0"/>
    <polygon points="6,16 7,16 7,17 6,17" fill="#E7E7E7"/>
    <polygon points="7,16 8,16 8,17 7,17" fill="#C0C0C0"/>
    <polygon points="8,16 9,16 9,17 8,17" fill="#E7E7E7"/>
    <polygon points="9,16 10,16 10,17 9,17" fill="#FFFFFF"/>
    <polygon points="10,16 11,16 11,17 10,17" fill="#FFFFFF"/>
    <polygon points="11,16 12,16 12,17 11,17" fill="#A5A5A5"/>
    <polygon points="12,16 13,16 13,17 12,17" fill="#CDCDCD"/>
    <polygon points="13,16 14,16 14,17 13,17" fill="#E7E7E7"/>
    <polygon points="14,16 15,16 15,17 14,17" fill="#FFFFFF"/>
    <polygon points="15,16 16,16 16,17 15,17" fill="#FFFFFF"/>
    <polygon points="16,16 17,16 17,17 16,17" fill="#FFFFFF"/>
    <polygon points="17,16 18,16 18,17 17,17" fill="#F3F3F3"/>
    <polygon points="18,16 19,16 19,17 18,17" fill="#E7E7E7"/>
    <polygon points="19,16 20,16 20,17 19,17" fill="#777777"/>
    <polygon points="20,16 21,16 21,17 20,17" fill="#969696"/>
    <polygon points="21,16 22,16 22,17 21,17" fill="#969696"/>
    <polygon points="22,16 23,16 23,17 22,17" fill="#C0C0C0"/>
    <polygon points="23,16 24,16 24,17 23,17" fill="#969696"/>
    <polygon points="24,16 25,16 25,17 24,17" fill="#3F3F3F"/>
    <polygon points="25,16 26,16 26,17 25,17" fill="#777777"/>
    <polygon points="26,16 27,16 27,17 26,17" fill="#666666"/>
    <polygon points="27,16 28,16 28,17 27,17" fill="#969696"/>
    <polygon points="28,16 29,16 29,17 28,17" fill="#000000"/>
    <polygon points="3,17 4,17 4,18 3,18" fill="#000000"/>
    <polygon points="4,17 5,17 5,18 4,18" fill="#969696"/>
    <polygon points="5,17 6,17 6,18 5,18" fill="#C0C0C0"/>
    <polygon points="6,17 7,17 7,18 6,18" fill="#E7E7E7"/>
    <polygon points="7,17 8,17 8,18 7,18" fill="#C0C0C0"/>
    <polygon points="8,17 9,17 9,18 8,18" fill="#E7E7E7"/>
    <polygon points="9,17 10,17 10,18 9,18" fill="#FFFFFF"/>
    <polygon points="10,17 11,17 11,18 10,18" fill="#FFFFFF"/>
    <polygon points="11,17 12,17 12,18 11,18" fill="#A5A5A5"/>
    <polygon points="12,17 13,17 13,18 12,18" fill="#CDCDCD"/>
    <polygon points="13,17 14,17 14,18 13,18" fill="#E7E7E7"/>
    <polygon points="14,17 15,17 15,18 14,18" fill="#FFFFFF"/>
    <polygon points="15,17 16,17 16,18 15,18" fill="#FFFFFF"/>
    <polygon points="16,17 17,17 17,18 16,18" fill="#FFFFFF"/>
    <polygon points="17,17 18,17 18,18 17,18" fill="#F3F3F3"/>
    <polygon points="18,17 19,17 19,18 18,18" fill="#E7E7E7"/>
    <polygon points="19,17 20,17 20,18 19,18" fill="#777777"/>
    <polygon points="20,17 21,17 21,18 20,18" fill="#969696"/>
    <polygon points="21,17 22,17 22,18 21,18" fill="#969696"/>
    <polygon points="22,17 23,17 23,18 22,18" fill="#C0C0C0"/>
    <polygon points="23,17 24,17 24,18 23,18" fill="#969696"/>
    <polygon points="24,17 25,17 25,18 24,18" fill="#3F3F3F"/>
    <polygon points="25,17 26,17 26,18 25,18" fill="#777777"/>
    <polygon points="26,17 27,17 27,18 26,18" fill="#666666"/>
    <polygon points="27,17 28,17 28,18 27,18" fill="#969696"/>
    <polygon points="28,17 29,17 29,18 28,18" fill="#000000"/>
    <polygon points="3,18 4,18 4,19 3,19" fill="#000000"/>
    <polygon points="4,18 5,18 5,19 4,19" fill="#969696"/>
    <polygon points="5,18 6,18 6,19 5,19" fill="#C0C0C0"/>
    <polygon points="6,18 7,18 7,19 6,19" fill="#E7E7E7"/>
    <polygon points="7,18 8,18 8,19 7,19" fill="#C0C0C0"/>
    <polygon points="8,18 9,18 9,19 8,19" fill="#E7E7E7"/>
    <polygon points="9,18 10,18 10,19 9,19" fill="#FFFFFF"/>
    <polygon points="10,18 11,18 11,19 10,19" fill="#FFFFFF"/>
    <polygon points="11,18 12,18 12,19 11,19" fill="#A5A5A5"/>
    <polygon points="12,18 13,18 13,19 12,19" fill="#C0C0C0"/>
    <polygon points="13,18 14,18 14,19 13,19" fill="#E7E7E7"/>
    <polygon points="14,18 15,18 15,19 14,19" fill="#FFFFFF"/>
    <polygon points="15,18 16,18 16,19 15,19" fill="#FFFFFF"/>
    <polygon points="16,18 17,18 17,19 16,19" fill="#FFFFFF"/>
    <polygon points="17,18 18,18 18,19 17,19" fill="#F3F3F3"/>
    <polygon points="18,18 19,18 19,19 18,19" fill="#E7E7E7"/>
    <polygon points="19,18 20,18 20,19 19,19" fill="#777777"/>
    <polygon points="20,18 21,18 21,19 20,19" fill="#969696"/>
    <polygon points="21,18 22,18 22,19 21,19" fill="#969696"/>
    <polygon points="22,18 23,18 23,19 22,19" fill="#C0C0C0"/>
    <polygon points="23,18 24,18 24,19 23,19" fill="#969696"/>
    <polygon points="24,18 25,18 25,19 24,19" fill="#3F3F3F"/>
    <polygon points="25,18 26,18 26,19 25,19" fill="#777777"/>
    <polygon points="26,18 27,18 27,19 26,19" fill="#666666"/>
    <polygon points="27,18 28,18 28,19 27,19" fill="#969696"/>
    <polygon points="28,18 29,18 29,19 28,19" fill="#000000"/>
    <polygon points="3,19 4,19 4,20 3,20" fill="#000000"/>
    <polygon points="4,19 5,19 5,20 4,20" fill="#969696"/>
    <polygon points="5,19 6,19 6,20 5,20" fill="#C0C0C0"/>
    <polygon points="6,19 7,19 7,20 6,20" fill="#E7E7E7"/>
    <polygon points="7,19 8,19 8,20 7,20" fill="#C0C0C0"/>
    <polygon points="8,19 9,19 9,20 8,20" fill="#E7E7E7"/>
    <polygon points="9,19 10,19 10,20 9,20" fill="#FFFFFF"/>
    <polygon points="10,19 11,19 11,20 10,20" fill="#FFFFFF"/>
    <polygon points="11,19 12,19 12,20 11,20" fill="#A5A5A5"/>
    <polygon points="12,19 13,19 13,20 12,20" fill="#C0C0C0"/>
    <polygon points="13,19 14,19 14,20 13,20" fill="#E7E7E7"/>
    <polygon points="14,19 15,19 15,20 14,20" fill="#FFFFFF"/>
    <polygon points="15,19 16,19 16,20 15,20" fill="#FFFFFF"/>
    <polygon points="16,19 17,19 17,20 16,20" fill="#F3F3F3"/>
    <polygon points="17,19 18,19 18,20 17,20" fill="#E7E7E7"/>
    <polygon points="18,19 19,19 19,20 18,20" fill="#E7E7E7"/>
    <polygon points="19,19 20,19 20,20 19,20" fill="#777777"/>
    <polygon points="20,19 21,19 21,20 20,20" fill="#969696"/>
    <polygon points="21,19 22,19 22,20 21,20" fill="#969696"/>
    <polygon points="22,19 23,19 23,20 22,20" fill="#C0C0C0"/>
    <polygon points="23,19 24,19 24,20 23,20" fill="#969696"/>
    <polygon points="24,19 25,19 25,20 24,20" fill="#3F3F3F"/>
    <polygon points="25,19 26,19 26,20 25,20" fill="#777777"/>
    <polygon points="26,19 27,19 27,20 26,20" fill="#666666"/>
    <polygon points="27,19 28,19 28,20 27,20" fill="#969696"/>
    <polygon points="28,19 29,19 29,20 28,20" fill="#000000"/>
    <polygon points="3,20 4,20 4,21 3,21" fill="#000000"/>
    <polygon points="4,20 5,20 5,21 4,21" fill="#969696"/>
    <polygon points="5,20 6,20 6,21 5,21" fill="#C0C0C0"/>
    <polygon points="6,20 7,20 7,21 6,21" fill="#E7E7E7"/>
    <polygon points="7,20 8,20 8,21 7,21" fill="#C0C0C0"/>
    <polygon points="8,20 9,20 9,21 8,21" fill="#E7E7E7"/>
    <polygon points="9,20 10,20 10,21 9,21" fill="#FFFFFF"/>
    <polygon points="10,20 11,20 11,21 10,21" fill="#FFFFFF"/>
    <polygon points="11,20 12,20 12,21 11,21" fill="#A5A5A5"/>
    <polygon points="12,20 13,20 13,21 12,21" fill="#C0C0C0"/>
    <polygon points="13,20 14,20 14,21 13,21" fill="#CDCDCD"/>
    <polygon points="14,20 15,20 15,21 14,21" fill="#FFFFFF"/>
    <polygon points="15,20 16,20 16,21 15,21" fill="#F3F3F3"/>
    <polygon points="16,20 17,20 17,21 16,21" fill="#E7E7E7"/>
    <polygon points="17,20 18,20 18,21 17,21" fill="#E7E7E7"/>
    <polygon points="18,20 19,20 19,21 18,21" fill="#E7E7E7"/>
    <polygon points="19,20 20,20 20,21 19,21" fill="#777777"/>
    <polygon points="20,20 21,20 21,21 20,21" fill="#969696"/>
    <polygon points="21,20 22,20 22,21 21,21" fill="#969696"/>
    <polygon points="22,20 23,20 23,21 22,21" fill="#C0C0C0"/>
    <polygon points="23,20 24,20 24,21 23,21" fill="#969696"/>
    <polygon points="24,20 25,20 25,21 24,21" fill="#3F3F3F"/>
    <polygon points="25,20 26,20 26,21 25,21" fill="#777777"/>
    <polygon points="26,20 27,20 27,21 26,21" fill="#666666"/>
    <polygon points="27,20 28,20 28,21 27,21" fill="#969696"/>
    <polygon points="28,20 29,20 29,21 28,21" fill="#000000"/>
    <polygon points="3,21 4,21 4,22 3,22" fill="#000000"/>
    <polygon points="4,21 5,21 5,22 4,22" fill="#969696"/>
    <polygon points="5,21 6,21 6,22 5,22" fill="#C0C0C0"/>
    <polygon points="6,21 7,21 7,22 6,22" fill="#E7E7E7"/>
    <polygon points="7,21 8,21 8,22 7,22" fill="#C0C0C0"/>
    <polygon points="8,21 9,21 9,22 8,22" fill="#E7E7E7"/>
    <polygon points="9,21 10,21 10,22 9,22" fill="#FFFFFF"/>
    <polygon points="10,21 11,21 11,22 10,22" fill="#FFFFFF"/>
    <polygon points="11,21 12,21 12,22 11,22" fill="#A5A5A5"/>
    <polygon points="12,21 13,21 13,22 12,22" fill="#C0C0C0"/>
    <polygon points="13,21 14,21 14,22 13,22" fill="#CDCDCD"/>
    <polygon points="14,21 15,21 15,22 14,22" fill="#F3F3F3"/>
    <polygon points="15,21 16,21 16,22 15,22" fill="#E7E7E7"/>
    <polygon points="16,21 17,21 17,22 16,22" fill="#E7E7E7"/>
    <polygon points="17,21 18,21 18,22 17,22" fill="#E7E7E7"/>
    <polygon points="18,21 19,21 19,22 18,22" fill="#E7E7E7"/>
    <polygon points="19,21 20,21 20,22 19,22" fill="#777777"/>
    <polygon points="20,21 21,21 21,22 20,22" fill="#969696"/>
    <polygon points="21,21 22,21 22,22 21,22" fill="#969696"/>
    <polygon points="22,21 23,21 23,22 22,22" fill="#C0C0C0"/>
    <polygon points="23,21 24,21 24,22 23,22" fill="#969696"/>
    <polygon points="24,21 25,21 25,22 24,22" fill="#3F3F3F"/>
    <polygon points="25,21 26,21 26,22 25,22" fill="#777777"/>
    <polygon points="26,21 27,21 27,22 26,22" fill="#666666"/>
    <polygon points="27,21 28,21 28,22 27,22" fill="#969696"/>
    <polygon points="28,21 29,21 29,22 28,22" fill="#000000"/>
    <polygon points="3,22 4,22 4,23 3,23" fill="#000000"/>
    <polygon points="4,22 5,22 5,23 4,23" fill="#969696"/>
    <polygon points="5,22 6,22 6,23 5,23" fill="#C0C0C0"/>
    <polygon points="6,22 7,22 7,23 6,23" fill="#E7E7E7"/>
    <polygon points="7,22 8,22 8,23 7,23" fill="#C0C0C0"/>
    <polygon points="8,22 9,22 9,23 8,23" fill="#CDCDCD"/>
    <polygon points="9,22 10,22 10,23 9,23" fill="#E7E7E7"/>
    <polygon points="10,22 11,22 11,23 10,23" fill="#E7E7E7"/>
    <polygon points="11,22 12,22 12,23 11,23" fill="#A5A5A5"/>
    <polygon points="12,22 13,22 13,23 12,23" fill="#C0C0C0"/>
    <polygon points="13,22 14,22 14,23 13,23" fill="#CDCDCD"/>
    <polygon points="14,22 15,22 15,23 14,23" fill="#E7E7E7"/>
    <polygon points="15,22 16,22 16,23 15,23" fill="#E7E7E7"/>
    <polygon points="16,22 17,22 17,23 16,23" fill="#E7E7E7"/>
    <polygon points="17,22 18,22 18,23 17,23" fill="#E7E7E7"/>
    <polygon points="18,22 19,22 19,23 18,23" fill="#E7E7E7"/>
    <polygon points="19,22 20,22 20,23 19,23" fill="#777777"/>
    <polygon points="20,22 21,22 21,23 20,23" fill="#969696"/>
    <polygon points="21,22 22,22 22,23 21,23" fill="#969696"/>
    <polygon points="22,22 23,22 23,23 22,23" fill="#C0C0C0"/>
    <polygon points="23,22 24,22 24,23 23,23" fill="#969696"/>
    <polygon points="24,22 25,22 25,23 24,23" fill="#3F3F3F"/>
    <polygon points="25,22 26,22 26,23 25,23" fill="#777777"/>
    <polygon points="26,22 27,22 27,23 26,23" fill="#666666"/>
    <polygon points="27,22 28,22 28,23 27,23" fill="#969696"/>
    <polygon points="28,22 29,22 29,23 28,23" fill="#000000"/>
    <polygon points="4,23 5,23 5,24 4,24" fill="#000000"/>
    <polygon points="5,23 6,23 6,24 5,24" fill="#969696"/>
    <polygon points="6,23 7,23 7,24 6,24" fill="#C0C0C0"/>
    <polygon points="7,23 8,23 8,24 7,24" fill="#E7E7E7"/>
    <polygon points="8,23 9,23 9,24 8,24" fill="#C0C0C0"/>
    <polygon points="9,23 10,23 10,24 9,24" fill="#CDCDCD"/>
    <polygon points="10,23 11,23 11,24 10,24" fill="#E7E7E7"/>
    <polygon points="11,23 12,23 12,24 11,24" fill="#E7E7E7"/>
    <polygon points="12,23 13,23 13,24 12,24" fill="#A5A5A5"/>
    <polygon points="13,23 14,23 14,24 13,24" fill="#C0C0C0"/>
    <polygon points="14,23 15,23 15,24 14,24" fill="#CDCDCD"/>
    <polygon points="15,23 16,23 16,24 15,24" fill="#E7E7E7"/>
    <polygon points="16,23 17,23 17,24 16,24" fill="#E7E7E7"/>
    <polygon points="17,23 18,23 18,24 17,24" fill="#E7E7E7"/>
    <polygon points="18,23 19,23 19,24 18,24" fill="#777777"/>
    <polygon points="19,23 20,23 20,24 19,24" fill="#969696"/>
    <polygon points="20,23 21,23 21,24 20,24" fill="#969696"/>
    <polygon points="21,23 22,23 22,24 21,24" fill="#C0C0C0"/>
    <polygon points="22,23 23,23 23,24 22,24" fill="#C0C0C0"/>
    <polygon points="23,23 24,23 24,24 23,24" fill="#3F3F3F"/>
    <polygon points="24,23 25,23 25,24 24,24" fill="#777777"/>
    <polygon points="25,23 26,23 26,24 25,24" fill="#666666"/>
    <polygon points="26,23 27,23 27,24 26,24" fill="#969696"/>
    <polygon points="27,23 28,23 28,24 27,24" fill="#000000"/>
    <polygon points="4,24 5,24 5,25 4,25" fill="#000000"/>
    <polygon points="5,24 6,24 6,25 5,25" fill="#969696"/>
    <polygon points="6,24 7,24 7,25 6,25" fill="#C0C0C0"/>
    <polygon points="7,24 8,24 8,25 7,25" fill="#E7E7E7"/>
    <polygon points="8,24 9,24 9,25 8,25" fill="#C0C0C0"/>
    <polygon points="9,24 10,24 10,25 9,25" fill="#CDCDCD"/>
    <polygon points="10,24 11,24 11,25 10,25" fill="#E7E7E7"/>
    <polygon points="11,24 12,24 12,25 11,25" fill="#E7E7E7"/>
    <polygon points="12,24 13,24 13,25 12,25" fill="#A5A5A5"/>
    <polygon points="13,24 14,24 14,25 13,25" fill="#C0C0C0"/>
    <polygon points="14,24 15,24 15,25 14,25" fill="#CDCDCD"/>
    <polygon points="15,24 16,24 16,25 15,25" fill="#E7E7E7"/>
    <polygon points="16,24 17,24 17,25 16,25" fill="#E7E7E7"/>
    <polygon points="17,24 18,24 18,25 17,25" fill="#E7E7E7"/>
    <polygon points="18,24 19,24 19,25 18,25" fill="#777777"/>
    <polygon points="19,24 20,24 20,25 19,25" fill="#969696"/>
    <polygon points="20,24 21,24 21,25 20,25" fill="#969696"/>
    <polygon points="21,24 22,24 22,25 21,25" fill="#C0C0C0"/>
    <polygon points="22,24 23,24 23,25 22,25" fill="#969696"/>
    <polygon points="23,24 24,24 24,25 23,25" fill="#3F3F3F"/>
    <polygon points="24,24 25,24 25,25 24,25" fill="#777777"/>
    <polygon points="25,24 26,24 26,25 25,25" fill="#666666"/>
    <polygon points="26,24 27,24 27,25 26,25" fill="#969696"/>
    <polygon points="27,24 28,24 28,25 27,25" fill="#000000"/>
    <polygon points="5,25 6,25 6,26 5,26" fill="#000000"/>
    <polygon points="6,25 7,25 7,26 6,26" fill="#969696"/>
    <polygon points="7,25 8,25 8,26 7,26" fill="#E7E7E7"/>
    <polygon points="8,25 9,25 9,26 8,26" fill="#C0C0C0"/>
    <polygon points="9,25 10,25 10,26 9,26" fill="#CDCDCD"/>
    <polygon points="10,25 11,25 11,26 10,26" fill="#E7E7E7"/>
    <polygon points="11,25 12,25 12,26 11,26" fill="#E7E7E7"/>
    <polygon points="12,25 13,25 13,26 12,26" fill="#E7E7E7"/>
    <polygon points="13,25 14,25 14,26 13,26" fill="#A5A5A5"/>
    <polygon points="14,25 15,25 15,26 14,26" fill="#C0C0C0"/>
    <polygon points="15,25 16,25 16,26 15,26" fill="#CDCDCD"/>
    <polygon points="16,25 17,25 17,26 16,26" fill="#E7E7E7"/>
    <polygon points="17,25 18,25 18,26 17,26" fill="#777777"/>
    <polygon points="18,25 19,25 19,26 18,26" fill="#969696"/>
    <polygon points="19,25 20,25 20,26 19,26" fill="#969696"/>
    <polygon points="20,25 21,25 21,26 20,26" fill="#C0C0C0"/>
    <polygon points="21,25 22,25 22,26 21,26" fill="#C0C0C0"/>
    <polygon points="22,25 23,25 23,26 22,26" fill="#969696"/>
    <polygon points="23,25 24,25 24,26 23,26" fill="#3F3F3F"/>
    <polygon points="24,25 25,25 25,26 24,26" fill="#666666"/>
    <polygon points="25,25 26,25 26,26 25,26" fill="#969696"/>
    <polygon points="26,25 27,25 27,26 26,26" fill="#000000"/>
    <polygon points="5,26 6,26 6,27 5,27" fill="#000000"/>
    <polygon points="6,26 7,26 7,27 6,27" fill="#969696"/>
    <polygon points="7,26 8,26 8,27 7,27" fill="#C0C0C0"/>
    <polygon points="8,26 9,26 9,27 8,27" fill="#E7E7E7"/>
    <polygon points="9,26 10,26 10,27 9,27" fill="#C0C0C0"/>
    <polygon points="10,26 11,26 11,27 10,27" fill="#E7E7E7"/>
    <polygon points="11,26 12,26 12,27 11,27" fill="#E7E7E7"/>
    <polygon points="12,26 13,26 13,27 12,27" fill="#E7E7E7"/>
    <polygon points="13,26 14,26 14,27 13,27" fill="#A5A5A5"/>
    <polygon points="14,26 15,26 15,27 14,27" fill="#C0C0C0"/>
    <polygon points="15,26 16,26 16,27 15,27" fill="#CDCDCD"/>
    <polygon points="16,26 17,26 17,27 16,27" fill="#DADADA"/>
    <polygon points="17,26 18,26 18,27 17,27" fill="#777777"/>
    <polygon points="18,26 19,26 19,27 18,27" fill="#969696"/>
    <polygon points="19,26 20,26 20,27 19,27" fill="#969696"/>
    <polygon points="20,26 21,26 21,27 20,27" fill="#C0C0C0"/>
    <polygon points="21,26 22,26 22,27 21,27" fill="#969696"/>
    <polygon points="22,26 23,26 23,27 22,27" fill="#3F3F3F"/>
    <polygon points="23,26 24,26 24,27 23,27" fill="#777777"/>
    <polygon points="24,26 25,26 25,27 24,27" fill="#666666"/>
    <polygon points="25,26 26,26 26,27 25,27" fill="#969696"/>
    <polygon points="26,26 27,26 27,27 26,27" fill="#000000"/>
    <polygon points="5,27 6,27 6,28 5,28" fill="#000000"/>
    <polygon points="6,27 7,27 7,28 6,28" fill="#969696"/>
    <polygon points="7,27 8,27 8,28 7,28" fill="#C0C0C0"/>
    <polygon points="8,27 9,27 9,28 8,28" fill="#E7E7E7"/>
    <polygon points="9,27 10,27 10,28 9,28" fill="#C0C0C0"/>
    <polygon points="10,27 11,27 11,28 10,28" fill="#DADADA"/>
    <polygon points="11,27 12,27 12,28 11,28" fill="#E7E7E7"/>
    <polygon points="12,27 13,27 13,28 12,28" fill="#DADADA"/>
    <polygon points="13,27 14,27 14,28 13,28" fill="#A5A5A5"/>
    <polygon points="14,27 15,27 15,28 14,28" fill="#C0C0C0"/>
    <polygon points="15,27 16,27 16,28 15,28" fill="#CDCDCD"/>
    <polygon points="16,27 17,27 17,28 16,28" fill="#DADADA"/>
    <polygon points="17,27 18,27 18,28 17,28" fill="#777777"/>
    <polygon points="18,27 19,27 19,28 18,28" fill="#969696"/>
    <polygon points="19,27 20,27 20,28 19,28" fill="#969696"/>
    <polygon points="20,27 21,27 21,28 20,28" fill="#C0C0C0"/>
    <polygon points="21,27 22,27 22,28 21,28" fill="#969696"/>
    <polygon points="22,27 23,27 23,28 22,28" fill="#3F3F3F"/>
    <polygon points="23,27 24,27 24,28 23,28" fill="#666666"/>
    <polygon points="24,27 25,27 25,28 24,28" fill="#666666"/>
    <polygon points="25,27 26,27 26,28 25,28" fill="#969696"/>
    <polygon points="26,27 27,27 27,28 26,28" fill="#000000"/>
    <polygon points="6,28 7,28 7,29 6,29" fill="#000000"/>
    <polygon points="7,28 8,28 8,29 7,29" fill="#969696"/>
    <polygon points="8,28 9,28 9,29 8,29" fill="#CDCDCD"/>
    <polygon points="9,28 10,28 10,29 9,29" fill="#E7E7E7"/>
    <polygon points="10,28 11,28 11,29 10,29" fill="#CDCDCD"/>
    <polygon points="11,28 12,28 12,29 11,29" fill="#DADADA"/>
    <polygon points="12,28 13,28 13,29 12,29" fill="#DADADA"/>
    <polygon points="13,28 14,28 14,29 13,29" fill="#A5A5A5"/>
    <polygon points="14,28 15,28 15,29 14,29" fill="#C0C0C0"/>
    <polygon points="15,28 16,28 16,29 15,29" fill="#DADADA"/>
    <polygon points="16,28 17,28 17,29 16,29" fill="#CDCDCD"/>
    <polygon points="17,28 18,28 18,29 17,29" fill="#777777"/>
    <polygon points="18,28 19,28 19,29 18,29" fill="#969696"/>
    <polygon points="19,28 20,28 20,29 19,29" fill="#C0C0C0"/>
    <polygon points="20,28 21,28 21,29 20,29" fill="#A5A5A5"/>
    <polygon points="21,28 22,28 22,29 21,29" fill="#969696"/>
    <polygon points="22,28 23,28 23,29 22,29" fill="#777777"/>
    <polygon points="23,28 24,28 24,29 23,29" fill="#666666"/>
    <polygon points="24,28 25,28 25,29 24,29" fill="#969696"/>
    <polygon points="25,28 26,28 26,29 25,29" fill="#000000"/>
    <polygon points="6,29 7,29 7,30 6,30" fill="#000000"/>
    <polygon points="7,29 8,29 8,30 7,30" fill="#969696"/>
    <polygon points="8,29 9,29 9,30 8,30" fill="#C0C0C0"/>
    <polygon points="9,29 10,29 10,30 9,30" fill="#FFFFFF"/>
    <polygon points="10,29 11,29 11,30 10,30" fill="#FFFFFF"/>
    <polygon points="11,29 12,29 12,30 11,30" fill="#E7E7E7"/>
    <polygon points="12,29 13,29 13,30 12,30" fill="#DADADA"/>
    <polygon points="13,29 14,29 14,30 13,30" fill="#DADADA"/>
    <polygon points="14,29 15,29 15,30 14,30" fill="#DADADA"/>
    <polygon points="15,29 16,29 16,30 15,30" fill="#CDCDCD"/>
    <polygon points="16,29 17,29 17,30 16,30" fill="#C0C0C0"/>
    <polygon points="17,29 18,29 18,30 17,30" fill="#C0C0C0"/>
    <polygon points="18,29 19,29 19,30 18,30" fill="#C0C0C0"/>
    <polygon points="19,29 20,29 20,30 19,30" fill="#A5A5A5"/>
    <polygon points="20,29 21,29 21,30 20,30" fill="#969696"/>
    <polygon points="21,29 22,29 22,30 21,30" fill="#969696"/>
    <polygon points="22,29 23,29 23,30 22,30" fill="#777777"/>
    <polygon points="23,29 24,29 24,30 23,30" fill="#666666"/>
    <polygon points="24,29 25,29 25,30 24,30" fill="#969696"/>
    <polygon points="25,29 26,29 26,30 25,30" fill="#000000"/>
    <polygon points="6,30 7,30 7,31 6,31" fill="#000000"/>
    <polygon points="7,30 8,30 8,31 7,31" fill="#969696"/>
    <polygon points="8,30 9,30 9,31 8,31" fill="#C0C0C0"/>
    <polygon points="9,30 10,30 10,31 9,31" fill="#C0C0C0"/>
    <polygon points="10,30 11,30 11,31 10,31" fill="#C0C0C0"/>
    <polygon points="11,30 12,30 12,31 11,31" fill="#C0C0C0"/>
    <polygon points="12,30 13,30 13,31 12,31" fill="#C0C0C0"/>
    <polygon points="13,30 14,30 14,31 13,31" fill="#C0C0C0"/>
    <polygon points="14,30 15,30 15,31 14,31" fill="#C0C0C0"/>
    <polygon points="15,30 16,30 16,31 15,31" fill="#C0C0C0"/>
    <polygon points="16,30 17,30 17,31 16,31" fill="#A5A5A5"/>
    <polygon points="17,30 18,30 18,31 17,31" fill="#A5A5A5"/>
    <polygon points="18,30 19,30 19,31 18,31" fill="#969696"/>
    <polygon points="19,30 20,30 20,31 19,31" fill="#969696"/>
    <polygon points="20,30 21,30 21,31 20,31" fill="#969696"/>
    <polygon points="21,30 22,30 22,31 21,31" fill="#777777"/>
    <polygon points="22,30 23,30 23,31 22,31" fill="#666666"/>
    <polygon points="23,30 24,30 24,31 23,31" fill="#666666"/>
    <polygon points="24,30 25,30 25,31 24,31" fill="#777777"/>
    <polygon points="25,30 26,30 26,31 25,31" fill="#000000"/>
    <polygon points="7,31 8,31 8,32 7,32" fill="#000000"/>
    <polygon points="8,31 9,31 9,32 8,32" fill="#000000"/>
    <polygon points="9,31 10,31 10,32 9,32" fill="#000000"/>
    <polygon points="10,31 11,31 11,32 10,32" fill="#000000"/>
    <polygon points="11,31 12,31 12,32 11,32" fill="#000000"/>
    <polygon points="12,31 13,31 13,32 12,32" fill="#000000"/>
    <polygon points="13,31 14,31 14,32 13,32" fill="#000000"/>
    <polygon points="14,31 15,31 15,32 14,32" fill="#000000"/>
    <polygon points="15,31 16,31 16,32 15,32" fill="#000000"/>
    <polygon points="16,31 17,31 17,32 16,32" fill="#000000"/>
    <polygon points="17,31 18,31 18,32 17,32" fill="#000000"/>
    <polygon points="18,31 19,31 19,32 18,32" fill="#000000"/>
    <polygon points="19,31 20,31 20,32 19,32" fill="#000000"/>
    <polygon points="20,31 21,31 21,32 20,32" fill="#000000"/>
    <polygon points="21,31 22,31 22,32 21,32" fill="#000000"/>
    <polygon points="22,31 23,31 23,32 22,32" fill="#000000"/>
    <polygon points="23,31 24,31 24,32 23,32" fill="#000000"/>
    <polygon points="24,31 25,31 25,32 24,32" fill="#000000"/>
  </g>
</svg>
